<?xml version="1.0" encoding="UTF-8" standalone="no"?> <svg width="24" height="24" viewBox="0 0 24 24" fill="none" xmlns="http://www.w3.org/2000/svg">
<path d="M17.4 22C13.317 21.9955 9.40261 20.3716 6.51553 17.4845C3.62844 14.5974 2.0045 10.683 2 6.6C2.00132 5.38041 2.48639 4.21115 3.34877 3.34877C4.21115 2.48639 5.38041 2.00133 6.6 2C6.85672 1.9997 7.113 2.02144 7.366 2.065C7.6125 2.10542 7.85506 2.16698 8.091 2.249C8.2511 2.30452 8.39446 2.39981 8.50763 2.52593C8.62081 2.65204 8.70008 2.80485 8.738 2.97L10.107 8.934C10.1441 9.09569 10.1404 9.26407 10.0963 9.42398C10.0521 9.58388 9.96884 9.73029 9.854 9.85C9.719 9.991 9.717 9.994 8.474 10.644C9.46409 12.8031 11.1955 14.5356 13.354 15.527C14.004 14.286 14.007 14.283 14.154 14.146C14.3422 13.9656 14.5934 13.8659 14.854 13.868C14.928 13.868 15.0018 13.876 15.074 13.892L21.039 15.262C21.2041 15.2991 21.3569 15.3779 21.483 15.4908C21.609 15.6037 21.704 15.747 21.759 15.907C21.8413 16.1452 21.9029 16.3902 21.943 16.639C21.9835 16.8906 22.0025 17.1452 22 17.4C21.9987 18.6196 21.5136 19.7889 20.6512 20.6512C19.7888 21.5136 18.6196 21.9987 17.4 22ZM6.6 4C5.91044 4 5.24912 4.27393 4.76152 4.76153C4.27393 5.24912 4 5.91044 4 6.6C4.00397 10.1527 5.41703 13.5587 7.92915 16.0708C10.4413 18.583 13.8473 19.996 17.4 20C18.0896 20 18.7509 19.7261 19.2385 19.2385C19.7261 18.7509 20 18.0896 20 17.4C19.9998 17.2903 19.9928 17.1808 19.979 17.072L15.358 16.012L15.285 16.152C15.215 16.286 15.142 16.425 15.074 16.552C14.706 17.252 14.415 17.809 13.874 17.809C13.728 17.8056 13.584 17.774 13.45 17.716C11.7932 17.1234 10.2892 16.1692 9.04729 14.9228C7.80533 13.6763 6.8566 12.1689 6.27 10.51C5.912 9.724 6.593 9.369 7.455 8.919L7.991 8.638L6.928 4.021C6.81923 4.00695 6.70967 3.99993 6.6 4V4Z" fill="#4b8ece"/>
</svg>
