<?xml version="1.0" encoding="UTF-8" standalone="no"?> <svg width="24" height="24" viewBox="0 0 24 24" fill="none" xmlns="http://www.w3.org/2000/svg">
<path d="M19 21H5C4.20435 21 3.44129 20.6839 2.87868 20.1213C2.31607 19.5587 2 18.7956 2 18V10C2 9.20435 2.31607 8.44129 2.87868 7.87868C3.44129 7.31607 4.20435 7 5 7H8V5.5C8 4.83696 8.26339 4.20107 8.73223 3.73223C9.20107 3.26339 9.83696 3 10.5 3L13.5 3C14.163 3 14.7989 3.26339 15.2678 3.73223C15.7366 4.20107 16 4.83696 16 5.5V7H19C19.7956 7 20.5587 7.31607 21.1213 7.87868C21.6839 8.44129 22 9.20435 22 10V18C22 18.7956 21.6839 19.5587 21.1213 20.1213C20.5587 20.6839 19.7956 21 19 21ZM17 9V19H19C19.2652 19 19.5196 18.8946 19.7071 18.7071C19.8946 18.5196 20 18.2652 20 18V10C20 9.73478 19.8946 9.48043 19.7071 9.29289C19.5196 9.10536 19.2652 9 19 9H17ZM9 9V19H15V9H9ZM5 9C4.73478 9 4.48043 9.10536 4.29289 9.29289C4.10536 9.48043 4 9.73478 4 10V18C4 18.2652 4.10536 18.5196 4.29289 18.7071C4.48043 18.8946 4.73478 19 5 19H7V9H5ZM10.5 5C10.3674 5 10.2402 5.05268 10.1464 5.14645C10.0527 5.24021 10 5.36739 10 5.5V7H14V5.5C14 5.36739 13.9473 5.24021 13.8536 5.14645C13.7598 5.05268 13.6326 5 13.5 5H10.5Z" fill="#4b8ece"/>
</svg>
