<?xml version="1.0" encoding="UTF-8" standalone="no"?> <svg width="24" height="24" viewBox="0 0 24 24" fill="none" xmlns="http://www.w3.org/2000/svg">
<path d="M11.9021 21.9999H11.8611C9.20895 21.9944 6.66757 20.9356 4.79605 19.0564C2.92453 17.1772 1.87618 14.6315 1.88161 11.9794C1.88705 9.32719 2.94583 6.78581 4.82504 4.91429C6.70425 3.04277 9.24995 1.99442 11.9021 1.99986H11.9311C13.3404 1.98218 14.739 2.24593 16.0451 2.77567C17.3511 3.3054 18.5383 4.09047 19.5371 5.08486C20.3509 5.90282 20.9884 6.87888 21.4103 7.9528C21.8322 9.02672 22.0295 10.1757 21.9901 11.3289C21.8696 12.8684 21.1744 14.3063 20.0427 15.3569C18.9109 16.4075 17.4254 16.994 15.8811 16.9999H14.2301C14.0975 16.9999 13.9703 17.0525 13.8766 17.1463C13.7828 17.2401 13.7301 17.3672 13.7301 17.4999C13.7317 17.6202 13.7772 17.7358 13.8581 17.8249C14.1321 18.1312 14.3271 18.5 14.4259 18.8989C14.5247 19.2979 14.5244 19.715 14.4251 20.1139C14.2714 20.6625 13.9407 21.1449 13.4844 21.486C13.0281 21.8271 12.4718 22.0077 11.9021 21.9999V21.9999ZM11.9231 3.99986C10.0119 4.03927 8.17605 4.7528 6.73986 6.01444C5.30366 7.27607 4.3595 9.00464 4.07411 10.8949C3.91726 12.0188 4.00132 13.1632 4.32069 14.2521C4.64005 15.341 5.18744 16.3495 5.92648 17.2107C6.66552 18.0718 7.57931 18.7659 8.60717 19.2468C9.63502 19.7276 10.7534 19.9844 11.8881 19.9999C12.2071 19.9799 12.4351 19.8419 12.4821 19.6419C12.5049 19.5569 12.5058 19.4676 12.4846 19.3822C12.4635 19.2969 12.421 19.2183 12.3611 19.1539C12.0404 18.7943 11.8308 18.3495 11.7574 17.8733C11.6841 17.3971 11.7503 16.9099 11.948 16.4705C12.1457 16.0312 12.4664 15.6584 12.8714 15.3975C13.2764 15.1365 13.7483 14.9984 14.2301 14.9999H15.8811C16.9089 14.993 17.8977 14.6062 18.6573 13.9139C19.4169 13.2215 19.8934 12.2726 19.9951 11.2499C20.0223 10.3673 19.8684 9.48855 19.5428 8.6678C19.2173 7.84706 18.7269 7.10174 18.1021 6.47786C17.3012 5.6799 16.3492 5.04973 15.3018 4.62424C14.2544 4.19874 13.1326 3.98648 12.0021 3.99986H11.9231ZM7.00211 13.9999C6.64267 13.9999 6.29516 13.8708 6.02285 13.6362C5.75055 13.4016 5.57155 13.077 5.51844 12.7215C5.46534 12.366 5.54166 12.0032 5.7335 11.6993C5.92535 11.3953 6.21998 11.1703 6.56374 11.0653C6.9075 10.9603 7.27755 10.9822 7.60651 11.1271C7.93547 11.2719 8.20148 11.5301 8.3561 11.8546C8.51073 12.1791 8.54369 12.5483 8.44898 12.8951C8.35428 13.2418 8.13821 13.543 7.84011 13.7439C7.59248 13.9107 7.3007 13.9998 7.00211 13.9999V13.9999ZM16.0021 9.99986C15.6382 9.99945 15.2868 9.86676 15.0135 9.6265C14.7401 9.38624 14.5635 9.0548 14.5164 8.69393C14.4693 8.33307 14.555 7.96739 14.7576 7.66504C14.9601 7.36268 15.2657 7.14428 15.6173 7.05051C15.9689 6.95674 16.3427 6.994 16.6689 7.15536C16.995 7.31672 17.2515 7.59116 17.3903 7.92755C17.5292 8.26395 17.541 8.63935 17.4236 8.98381C17.3062 9.32827 17.0675 9.6183 16.7521 9.79986C16.524 9.93117 16.2653 10.0001 16.0021 9.99986V9.99986ZM8.00211 9.99986C7.67195 9.99965 7.35109 9.89051 7.08926 9.68937C6.82744 9.48824 6.6393 9.20634 6.554 8.88739C6.4687 8.56844 6.49102 8.23025 6.61749 7.92528C6.74395 7.6203 6.96751 7.36557 7.25349 7.20058C7.53947 7.03559 7.8719 6.96956 8.19922 7.01274C8.52655 7.05591 8.83048 7.20587 9.0639 7.43937C9.29733 7.67286 9.44719 7.97685 9.49026 8.30419C9.53333 8.63153 9.46719 8.96393 9.30211 9.24986C9.17038 9.47803 8.98087 9.66747 8.75266 9.79914C8.52445 9.9308 8.26558 10 8.00211 9.99986V9.99986ZM12.0021 7.99986C11.7054 7.99986 11.4154 7.91188 11.1688 7.74706C10.9221 7.58224 10.7298 7.34797 10.6163 7.07388C10.5028 6.79979 10.4731 6.49819 10.5309 6.20722C10.5888 5.91625 10.7317 5.64898 10.9415 5.4392C11.1512 5.22942 11.4185 5.08656 11.7095 5.02868C12.0004 4.9708 12.302 5.00051 12.5761 5.11404C12.8502 5.22757 13.0845 5.41983 13.2493 5.6665C13.4141 5.91318 13.5021 6.20318 13.5021 6.49986C13.5021 6.89768 13.3441 7.27921 13.0628 7.56052C12.7815 7.84182 12.3999 7.99986 12.0021 7.99986Z" fill="#4b8ece"/>
</svg>
